<svg width="1080" height="1080" xmlns="http://www.w3.org/2000/svg">
 <g>
  <title>Layer 1</title>
  <path fill-opacity="0" d="m0,0l0,1080l1080,0l0,-1080l-1080,0z" fill="#000000" id="svg_1"/>
  <path d="m600,24l4,3l-4,-3m8,7l0,1l8,0l-8,-1z" fill="#65b9a4" id="svg_4"/>
  <path d="m600,48l0,2l2,0l0,-2l-2,0z" fill="#d2b986" id="svg_5"/>
  <path d="m296,949c-1.403,3.507 4.754,4.377 8,6c7.702,3.851 15.544,7.272 23,11c3.263,1.631 6.557,2.771 6,5l40,16c2.464,-0.493 4.648,-0.591 4,2c6.647,-0.601 17.844,2.759 23,7l3,-1l0,2c17.292,0.281 35.842,8.02 53,10.92c33.083,5.59 66.457,7.89 100,7.07c134.543,-3.3 266.683,-68.796 352.565,-171.99c120.045,-144.239 145.735,-348.459 65.654,-518c-21.061,-44.588 -49.731,-85.954 -83.308,-122c-42.948,-46.105 -95.048,-82.122 -151.911,-108.7801c-51.356,-24.0765 -108.463,-38.2581 -165,-42.1304c-88.992,-6.0952 -179.88,11.9436 -259,53.6915c-158.206,83.477 -265.0612,256.996 -258.0386,437.219c4.924,126.365 51.4556,243.417 142.0386,334c20.714,20.714 43.646,39.683 68,55.999c8.425,5.645 18.67,14.88 29,16.001z" fill="#454547" id="svg_6"/>
  <path d="m774,111l9,5l0,-1l-9,-4m-404,582l1,-12l-1,0l-1,6l-1,0c0.057,-5.098 0.633,-8.597 6,-10l2,-4l8,-15l-1,0l-1,3l-2,0l1,-6l0,-11l3,-2l-4,-3l4,2l1,0l3,-2l4,-12l3,-9l11,-30l4,1l-2,-4l-5,1l0,-3l7,-4l-4,0l-1,-4c12.918,-0.907 17.627,-21.696 19,-32l3,0l-1,-10l6,-2l0,-10l8,-5l-1,-5l-2,0l8,-8l0,-1l-3,-1l-5,2l0,-1l3,-3c3.972,1.422 6.565,1.282 8,-3c-5.055,-2.97 -0.004,-12.486 0,-18l6,1l0,-4l-5,-1l0,-1l7,-2l-2,-3l0,-1l10,-10l-3,-2l0,-1l3,0c0.756,-5.933 3.513,-11.061 8,-15c-0.173,-6.145 4.377,-7.103 8,-11c-3.826,-2.292 -4.831,-5.435 0,-7l0,-12l10,-7l-2,-3l8,0l0,-3l-9,-3c5.78,-1.385 13.581,-8.085 6,-13l3,-7c5.046,-0.742 6.872,-4.292 8,-9l-8,3l0,-6c3.793,-0.553 12.638,-5.904 8,-10l0,-1l0,-1l2,-4l2,0l1,116c2.395,-5.707 1,-13.846 1,-20l0,-41l0,-145l0,-45c0,-6.644 1.415,-15.095 -2.344,-20.957c-7.432,-11.586 -29.85,-7.043 -41.656,-7.043l-107,0c-10.558,0 -30.668,-3.882 -38.775,4.225c-9.726,9.725 -0.595,21.451 5.648,29.775c9.985,13.313 28.485,30.133 33.564,46c1.624,5.075 0.563,11.719 0.563,17c0,105.603 1,210.404 1,316l0,73c0,10.26 -3.375,22.396 9,25m207,-419l0,-1l-37,-3l0,-3l4,0c0.068,-6.181 1.619,-9.734 7,-13l0,-1l-7,1l-4,-2l0,-1l17.015,-7.516l50.985,6.516c-13.544,-7.214 -36.857,-7.97 -52,-8c-3.903,-0.008 -12.183,-2.492 -15.397,0.029c-3.084,2.419 -1.603,10.511 -1.603,13.971c0,3.731 -1.423,11.302 1.028,14.397c2.003,2.529 7.163,1.59 9.972,1.604c9.025,0.044 17.976,1.924 27,1.999z" fill="#65b9a4" id="svg_7"/>
  <path d="m547.667,241.333l0.666,0.334l-0.666,-0.334m17.333,0.667l1,1l-1,-1z" fill="#c67077" id="svg_8"/>
  <path d="m546,243l1,4l-3,0l0,2l7,-6l-5,0m-6,8l0,1l4,2l7,-1l0,1c-6.12,2.549 -6.979,6.814 -7,13l-4,0l0,3c150.807,1.248 278.258,135.899 267.911,287c-2.429,35.465 -12.063,71.368 -28.336,103c-7.785,15.132 -18.218,28.329 -26.575,43c9.005,0 26.939,3.454 34.816,-1.028c4.014,-2.284 6.545,-8.108 8.757,-11.972c5.772,-10.085 10.839,-20.438 15.658,-31c22.965,-50.34 27.832,-104.678 22.694,-159c-10.03,-106.04 -90.284,-200.678 -187.925,-237.808c-26.55,-10.096 -61.146,-21.384 -89.985,-18.955c-5.922,0.499 -10.67,6.667 -17.015,7.763z" fill="#d2b986" id="svg_9"/>
  <path d="m574,243l1,1l-1,-1m8,1l1,1l-1,-1m7,1l1,1l-1,-1m6,1l1,1l-1,-1m13,3l1,1l-1,-1z" fill="#c67077" id="svg_10"/>
  <path d="m609,250l0,1l3,0l-3,-1m5,1l0,1l9,2l0,-1l-9,-2z" fill="#65b9a4" id="svg_11"/>
  <path d="m616,251l1,1l-1,-1m7,2l1,1l-1,-1z" fill="#c67077" id="svg_12"/>
  <path d="m625.667,254.333l0.666,0.334l-0.666,-0.334m1.333,0.667l0,1l6,1l0,-1l-6,-1z" fill="#65b9a4" id="svg_13"/>
  <path d="m630,255l1,1l-1,-1z" fill="#c67077" id="svg_14"/>
  <path d="m634.667,257.333l0.666,0.334l-0.666,-0.334m3,1l0.666,0.334l-0.666,-0.334m2,1l0.666,0.334l-0.666,-0.334z" fill="#65b9a4" id="svg_15"/>
  <path d="m641,259l1,1l-1,-1z" fill="#c67077" id="svg_16"/>
  <path d="m642.667,260.333l0.666,0.334l-0.666,-0.334m2.333,0.667l0,1l7,2l0,-1l-7,-2z" fill="#65b9a4" id="svg_17"/>
  <path d="m647,261l1,1l-1,-1m3,1l1,1l-1,-1m2,1l1,1l-1,-1z" fill="#c67077" id="svg_18"/>
  <path d="m653,264l1,1l-1,-1z" fill="#65b9a4" id="svg_19"/>
  <path d="m654,264l1,1l-1,-1z" fill="#c67077" id="svg_20"/>
  <path d="m655.667,265.333l0.666,0.334l-0.666,-0.334z" fill="#65b9a4" id="svg_21"/>
  <path d="m657,265l1,1l-1,-1z" fill="#c67077" id="svg_22"/>
  <path d="m658,266l1,1l-1,-1z" fill="#65b9a4" id="svg_23"/>
  <path d="m659,266l1,1l-1,-1z" fill="#c67077" id="svg_24"/>
  <path d="m660,267l1,1l-1,-1z" fill="#65b9a4" id="svg_25"/>
  <path d="m661,267l1,1l-1,-1z" fill="#c67077" id="svg_26"/>
  <path d="m662,268l1,1l-1,-1z" fill="#65b9a4" id="svg_27"/>
  <path d="m663,268l1,1l-1,-1z" fill="#c67077" id="svg_28"/>
  <path d="m664,269l1,1l-1,-1z" fill="#65b9a4" id="svg_29"/>
  <path d="m665,269l1,1l-1,-1m2,1l1,1l-1,-1z" fill="#c67077" id="svg_30"/>
  <path d="m669,271l1,1l-1,-1z" fill="#65b9a4" id="svg_31"/>
  <path d="m555,272l0,1l3,0l-3,-1z" fill="#c67077" id="svg_32"/>
  <path d="m670,272l1,1l-1,-1z" fill="#65b9a4" id="svg_33"/>
  <path d="m671,272l1,1l-1,-1m-102,1l1,1l-1,-1m104,0l1,1l-1,-1z" fill="#c67077" id="svg_34"/>
  <path d="m579,274l0,1l15,2l-15,-3m96,0l1,1l-1,-1z" fill="#65b9a4" id="svg_35"/>
  <path d="m676,274l1,1l-1,-1m-92,1l1,1l-1,-1z" fill="#c67077" id="svg_36"/>
  <path d="m677,275l1,1l-1,-1z" fill="#65b9a4" id="svg_37"/>
  <path d="m678,275l1,1l-1,-1m-89,1l1,1l-1,-1m90,0l1,1l-1,-1m-84.333,1.333l0.666,0.334l-0.666,-0.334z" fill="#c67077" id="svg_38"/>
  <path d="m596,277l0,1l7,1l0,-1l-7,-1z" fill="#65b9a4" id="svg_39"/>
  <path d="m681,277l1,1l-1,-1m-83,1l1,1l-1,-1z" fill="#c67077" id="svg_40"/>
  <path d="m682,278l1,1l-1,-1z" fill="#65b9a4" id="svg_41"/>
  <path d="m683,278l1,1l-1,-1m-80,1l1,1l-1,-1z" fill="#c67077" id="svg_42"/>
  <path d="m604,279l0,1l3,0l-3,-1m80,0l1,1l-1,-1z" fill="#65b9a4" id="svg_43"/>
  <path d="m685,279l1,1l-1,-1z" fill="#c67077" id="svg_44"/>
  <path d="m608,280l0,1l3,0l-3,-1m78,0l1,1l-1,-1z" fill="#65b9a4" id="svg_45"/>
  <path d="m687,280l1,1l-1,-1m-76,1l1,1l-1,-1z" fill="#c67077" id="svg_46"/>
  <path d="m612,281l0,1l6,1l0,-1l-6,-1z" fill="#65b9a4" id="svg_47"/>
  <path d="m688,281l1,1l-1,-1m-74,1l1,1l-1,-1z" fill="#c67077" id="svg_48"/>
  <path d="m689,282l1,1l-1,-1z" fill="#65b9a4" id="svg_49"/>
  <path d="m690,282l1,1l-1,-1m-72,1l1,1l-1,-1z" fill="#c67077" id="svg_50"/>
  <path d="m619.667,283.333l0.666,0.334l-0.666,-0.334m71.333,-0.333l1,1l-1,-1z" fill="#65b9a4" id="svg_51"/>
  <path d="m621,284l1,1l-1,-1z" fill="#c67077" id="svg_52"/>
  <path d="m622,284l0,1l4,1l0,-1l-4,-1z" fill="#65b9a4" id="svg_53"/>
  <path d="m693,284l1,1l-1,-1m-70,1l1,1l-1,-1z" fill="#c67077" id="svg_54"/>
  <path d="m694,285l1,1l-1,-1z" fill="#65b9a4" id="svg_55"/>
  <path d="m695,285l1,1l-1,-1m-68,1l1,1l-1,-1z" fill="#c67077" id="svg_56"/>
  <path d="m628,286l1,1l-1,-1m68,0l1,1l-1,-1z" fill="#65b9a4" id="svg_57"/>
  <path d="m629.667,287.333l0.666,0.334l-0.666,-0.334z" fill="#c67077" id="svg_58"/>
  <path d="m631,287l1,1l-1,-1z" fill="#65b9a4" id="svg_59"/>
  <path d="m698,287l1,1l-1,-1m-66,1l1,1l-1,-1z" fill="#c67077" id="svg_60"/>
  <path d="m633.667,288.333l0.666,0.334l-0.666,-0.334m65.333,-0.333l1,1l-1,-1z" fill="#65b9a4" id="svg_61"/>
  <path d="m700,288l1,1l-1,-1m-65,1l1,1l-1,-1z" fill="#c67077" id="svg_62"/>
  <path d="m636,289l1,1l-1,-1z" fill="#65b9a4" id="svg_63"/>
  <path d="m701,289l1,1l-1,-1m-63,1l1,1l-1,-1z" fill="#c67077" id="svg_64"/>
  <path d="m639,290l1,1l-1,-1z" fill="#65b9a4" id="svg_65"/>
  <path d="m703,290l1,1l-1,-1m-63,1l1,1l-1,-1z" fill="#c67077" id="svg_66"/>
  <path d="m641.667,291.333l0.666,0.334l-0.666,-0.334z" fill="#65b9a4" id="svg_67"/>
  <path d="m704.667,291.333l0.666,0.334l-0.666,-0.334z" fill="#c67077" id="svg_68"/>
  <path d="m643,292l1,1l-1,-1z" fill="#65b9a4" id="svg_69"/>
  <path d="m706,292l1,1l-1,-1m-61,1l1,1l-1,-1z" fill="#c67077" id="svg_70"/>
  <path d="m646,293l1,1l-1,-1m61,0l1,1l-1,-1z" fill="#65b9a4" id="svg_71"/>
  <path d="m647,294l1,1l-1,-1z" fill="#c67077" id="svg_72"/>
  <path d="m648,294l1,1l-1,-1m60,0l1,1l-1,-1z" fill="#65b9a4" id="svg_73"/>
  <path d="m709,294l1,1l-1,-1m-60,1l1,1l-1,-1z" fill="#c67077" id="svg_74"/>
  <path d="m650,295l1,1l-1,-1z" fill="#65b9a4" id="svg_75"/>
  <path d="m710,295l1,1l-1,-1z" fill="#c67077" id="svg_76"/>
  <path d="m652,296l1,1l-1,-1m59,0l1,1l-1,-1z" fill="#65b9a4" id="svg_77"/>
  <path d="m712,296l1,1l-1,-1m-59,1l1,1l-1,-1z" fill="#c67077" id="svg_78"/>
  <path d="m654,297l0,1l3,1l-3,-2z" fill="#65b9a4" id="svg_79"/>
  <path d="m713,297l1,1l-1,-1m-58,1l1,1l-1,-1m59,0l1,1l-1,-1m-56.333,1.333l0.666,0.334l-0.666,-0.334z" fill="#c67077" id="svg_80"/>
  <path d="m715,299l1,1l-1,-1z" fill="#65b9a4" id="svg_81"/>
  <path d="m659.667,300.333l0.666,0.334l-0.666,-0.334m57.333,-0.333l1,1l-1,-1z" fill="#c67077" id="svg_82"/>
  <path d="m539,402l1,0l0,-100l10,0c-14.245,-5.978 -11,12.531 -11,21l0,79z" fill="#65b9a4" id="svg_83"/>
  <path d="m550,301l0,1l3,0l-3,-1m111,0l1,1l-1,-1z" fill="#c67077" id="svg_84"/>
  <path d="m662,301l1,1l-1,-1z" fill="#65b9a4" id="svg_85"/>
  <path d="m718,301l1,1l-1,-1z" fill="#c67077" id="svg_86"/>
  <path d="m540,302l0,401l127,0l33,0c4.22,0 9.966,1.025 13.576,-1.603c8.949,-6.516 16.329,-18.3 22.423,-27.397c16.918,-25.252 29.82,-53.142 36.004,-83c7.373,-35.598 7.738,-71.472 -0.657,-107c-25.086,-106.16 -122.794,-182 -231.346,-182z" fill="#d2b986" id="svg_87"/>
  <path d="m552,302l0,1l28,2l-28,-3z" fill="#65b9a4" id="svg_88"/>
  <path d="m566,302l1,1l-1,-1m97,0l1,1l-1,-1z" fill="#c67077" id="svg_89"/>
  <path d="m664,302l1,1l-1,-1m55,0l1,1l-1,-1z" fill="#65b9a4" id="svg_90"/>
  <path d="m574.667,303.333l0.666,0.334l-0.666,-0.334m91,0l0.666,0.334l-0.666,-0.334m55.333,-0.333l1,1l-1,-1m-141,1l1,1l-1,-1m87,0l1,1l-1,-1z" fill="#c67077" id="svg_91"/>
  <path d="m668,304l1,1l-1,-1z" fill="#65b9a4" id="svg_92"/>
  <path d="m722,304l1,1l-1,-1z" fill="#c67077" id="svg_93"/>
  <path d="m581,305l0,1l4,0l-4,-1z" fill="#65b9a4" id="svg_94"/>
  <path d="m669,305l1,1l-1,-1z" fill="#c67077" id="svg_95"/>
  <path d="m670,305l1,1l-1,-1m53,0l1,1l-1,-1m-138,1l0,1l9,1l-9,-2z" fill="#65b9a4" id="svg_96"/>
  <path d="m590,306l1,1l-1,-1m81,0l1,1l-1,-1z" fill="#c67077" id="svg_97"/>
  <path d="m672,306l1,1l-1,-1z" fill="#65b9a4" id="svg_98"/>
  <path d="m725,306l1,1l-1,-1m-131,1l1,1l-1,-1m79,0l1,1l-1,-1m53,0l1,1l-1,-1z" fill="#c67077" id="svg_99"/>
  <path d="m596.667,308.333l0.666,0.334l-0.666,-0.334z" fill="#65b9a4" id="svg_100"/>
  <path d="m598,308l1,1l-1,-1z" fill="#c67077" id="svg_101"/>
  <path d="m675,308l1,1l-1,-1z" fill="#65b9a4" id="svg_102"/>
  <path d="m727,308l1,1l-1,-1z" fill="#c67077" id="svg_103"/>
  <path d="m600,309l0,1l6,1l0,-1l-6,-1z" fill="#65b9a4" id="svg_104"/>
  <path d="m603,309l1,1l-1,-1m73,0l1,1l-1,-1z" fill="#c67077" id="svg_105"/>
  <path d="m677,309l1,1l-1,-1z" fill="#65b9a4" id="svg_106"/>
  <path d="m729,309l1,1l-1,-1m-122.333,1.333l0.666,0.334l-0.666,-0.334m71.333,-0.333l1,1l-1,-1m52,0l1,1l-1,-1z" fill="#c67077" id="svg_107"/>
  <path d="m607.667,311.333l0.666,0.334l-0.666,-0.334z" fill="#65b9a4" id="svg_108"/>
  <path d="m609,311l1,1l-1,-1m70,0l1,1l-1,-1z" fill="#c67077" id="svg_109"/>
  <path d="m680,311l1,1l-1,-1z" fill="#65b9a4" id="svg_110"/>
  <path d="m731,311l1,1l-1,-1z" fill="#c67077" id="svg_111"/>
  <path d="m611.667,312.333l0.666,0.334l-0.666,-0.334z" fill="#65b9a4" id="svg_112"/>
  <path d="m681,312l1,1l-1,-1m51,0l1,1l-1,-1z" fill="#c67077" id="svg_113"/>
  <path d="m613.667,313.333l0.666,0.334l-0.666,-0.334z" fill="#65b9a4" id="svg_114"/>
  <path d="m615,313l1,1l-1,-1m67,0l1,1l-1,-1z" fill="#c67077" id="svg_115"/>
  <path d="m683,313l1,1l-1,-1z" fill="#65b9a4" id="svg_116"/>
  <path d="m733,313l1,1l-1,-1z" fill="#c67077" id="svg_117"/>
  <path d="m616.667,314.333l0.666,0.334l-0.666,-0.334z" fill="#65b9a4" id="svg_118"/>
  <path d="m618,314l1,1l-1,-1m66,0l1,1l-1,-1m50,0l1,1l-1,-1z" fill="#c67077" id="svg_119"/>
  <path d="m620,315l1,1l-1,-1z" fill="#65b9a4" id="svg_120"/>
  <path d="m621,315l1,1l-1,-1m64.667,0.333l0.666,0.334l-0.666,-0.334m50.333,-0.333l1,1l-1,-1z" fill="#c67077" id="svg_121"/>
  <path d="m622.667,316.333l0.666,0.334l-0.666,-0.334z" fill="#65b9a4" id="svg_122"/>
  <path d="m624,316l1,1l-1,-1m63,0l1,1l-1,-1m50,0l1,1l-1,-1z" fill="#c67077" id="svg_123"/>
  <path d="m625,317l1,1l-1,-1z" fill="#65b9a4" id="svg_124"/>
  <path d="m626,317l1,1l-1,-1m62.667,0.333l0.666,0.334l-0.666,-0.334m49.333,-0.333l1,1l-1,-1z" fill="#c67077" id="svg_125"/>
  <path d="m627.667,318.333l0.666,0.334l-0.666,-0.334z" fill="#65b9a4" id="svg_126"/>
  <path d="m629,318l1,1l-1,-1m61,0l1,1l-1,-1m49,0l1,1l-1,-1z" fill="#c67077" id="svg_127"/>
  <path d="m630,319l0,1l4,1l0,-1l-4,-1z" fill="#65b9a4" id="svg_128"/>
  <path d="m632,319l1,1l-1,-1m59.667,0.333l0.666,0.334l-0.666,-0.334m48.333,-0.333l1,1l-1,-1m-106,1l1,1l-1,-1m59,0l1,1l-1,-1m48,0l1,1l-1,-1z" fill="#c67077" id="svg_129"/>
  <path d="m635,321l1,1l-1,-1z" fill="#65b9a4" id="svg_130"/>
  <path d="m636,321l1,1l-1,-1z" fill="#c67077" id="svg_131"/>
  <path d="m695,321l1,1l-1,-1z" fill="#65b9a4" id="svg_132"/>
  <path d="m742,321l1,1l-1,-1z" fill="#c67077" id="svg_133"/>
  <path d="m637,322l1,1l-1,-1z" fill="#65b9a4" id="svg_134"/>
  <path d="m638,322l0,1l4,1l0,-1l-4,-1m58,0l1,1l-1,-1m47,0l1,1l-1,-1z" fill="#c67077" id="svg_135"/>
  <path d="m639,323l1,1l-1,-1z" fill="#65b9a4" id="svg_136"/>
  <path d="m697,323l1,1l-1,-1m47,0l1,1l-1,-1m-102,1l1,1l-1,-1m57,0l1,1l-1,-1m46,0l1,1l-1,-1m-101,1l1,1l-1,-1m56,0l1,1l-1,-1m46,0l1,1l-1,-1z" fill="#c67077" id="svg_137"/>
  <path d="m645,326l1,1l-1,-1z" fill="#65b9a4" id="svg_138"/>
  <path d="m646,326l1,1l-1,-1m55,0l1,1l-1,-1m46,0l1,1l-1,-1m-99,1l1,1l-1,-1m55,0l1,1l-1,-1m45.667,0.333l0.666,0.334l-0.666,-0.334z" fill="#c67077" id="svg_139"/>
  <path d="m313,732l6,-7l-2,-5l-2,2l-1,0l6,-3l0,6l2,-2l1,0l0,4l6,-2c0,-4.955 1.492,-11.554 0.193,-16.286c-2.076,-7.562 -9.882,-15.179 -14.19,-21.714c-7.941,-12.045 -14.679,-24.896 -20.694,-38c-17.177,-37.418 -23.792,-78.101 -23.305,-119c0.468,-39.356 12.665,-80.54 31.305,-115c4.991,-9.227 10.38,-18.528 16.576,-27c3.725,-5.094 9.778,-10.894 11.601,-17c3.694,-12.37 0.514,-30.086 0.514,-43c-7.622,3.584 -13.692,12.672 -19.13,19c-15.926,18.53 -28.876,39.186 -39.784,61c-53.486,106.972 -33.955,233.014 40.914,324z" fill="#65b9a4" id="svg_140"/>
  <path d="m650,328l1,1l-1,-1m54,0l1,1l-1,-1m46,0l1,1l-1,-1z" fill="#c67077" id="svg_141"/>
  <path d="m651,329l1,1l-1,-1z" fill="#65b9a4" id="svg_142"/>
  <path d="m652,329l1,1l-1,-1m53,0l1,1l-1,-1m46,0l1,1l-1,-1z" fill="#c67077" id="svg_143"/>
  <path d="m653,330l1,1l-1,-1z" fill="#65b9a4" id="svg_144"/>
  <path d="m654,330l1,1l-1,-1m52,0l1,1l-1,-1z" fill="#c67077" id="svg_145"/>
  <path d="m655,331l1,1l-1,-1z" fill="#65b9a4" id="svg_146"/>
  <path d="m708,331l1,1l-1,-1m44,0l2,2l0,-2l-2,0m-94.333,1.333l0.666,0.334l-0.666,-0.334m51.333,-0.333l1,1l-1,-1m-49.333,1.333l0.666,0.334l-0.666,-0.334m50.333,-0.333l1,1l-1,-1m44,0l1,1l-1,-1m-93,1l1,1l-1,-1m50,0l1,1l-1,-1m44,0l1,1l-1,-1z" fill="#c67077" id="svg_147"/>
  <path d="m662,335l1,1l-1,-1z" fill="#65b9a4" id="svg_148"/>
  <path d="m663,335l1,1l-1,-1m49,0l1,1l-1,-1m44,0l1,1l-1,-1m-92,1l0,1l3,1l-3,-2m50,0l1,1l-1,-1m43,0l1,1l-1,-1z" fill="#c67077" id="svg_149"/>
  <path d="m665,337l1,1l-1,-1z" fill="#65b9a4" id="svg_150"/>
  <path d="m715,337l1,1l-1,-1m43,0l1,1l-1,-1m-90.333,1.333l0.666,0.334l-0.666,-0.334m48.333,-0.333l1,1l-1,-1m43,0l1,1l-1,-1m-90,1l1,1l-1,-1m48,0l1,1l-1,-1m43,0l1,1l-1,-1m-90,1l1,1l-1,-1m48,0l1,1l-1,-1m43,0l1,1l-1,-1m-89,1l1,1l-1,-1m47,0l1,1l-1,-1m43,0l1,1l-1,-1m-89,1l1,1l-1,-1m47,0l1,1l-1,-1z" fill="#c67077" id="svg_151"/>
  <path d="m504,343l0,1l3,0l-3,-1z" fill="#d2b986" id="svg_152"/>
  <path d="m674,343l1,1l-1,-1z" fill="#65b9a4" id="svg_153"/>
  <path d="m675,343l1,1l-1,-1m1,1l1,1l-1,-1m47,0l1,1l-1,-1m41,0l1,1l-1,-1z" fill="#c67077" id="svg_154"/>
  <path d="m506,345l-2,4l0,1l0,1c2.809,4.618 -3.927,8.951 -8,10l0,6l8,-3c-1.622,4.372 -3.275,7.765 -8,9l-3,7c6.168,6.046 0.06,10.751 -6,13l9,3l0,3l-8,0l2,3l-10,7l0,12c-5.58,0.971 -4.674,5.207 0,7c-4.403,3.38 -8.514,4.735 -8,11l-11,15l0,1l3,2c-5.996,0.881 -6.399,6.013 -10,10l0,1l2,3l-7,2l0,1l5,1l0,4l-6,-1c-0.019,5.48 -6.271,15.897 0,18c-2.025,3.529 -4.129,3.694 -8,3l-3,3l0,1l5,-2l3,1l0,1l-8,8l2,0l1,5l-8,5l0,10l-6,2l1,10l-3,0c-2.353,10.374 -6.057,30.196 -19,32l1,4l4,0l-7,4l0,3l5,-1l2,4l-4,-1c-3.236,7.089 -12.717,22.833 -11,30l-3,9l-4,12l-3,2l-1,0l-4,-2l4,3l-3,2l0,11c-3.808,0.82 -2.571,3.159 -1,6l2,0l1,-3l1,0c-2.971,6.469 -8.924,6.494 -8,15l-2,4c-5.899,0.867 -5.982,4.761 -6,10l1,0l1,-6l1,0l1,6l3,0l0,-5l1,0l0,13l1,0l4,-5l-1,-3l4,-2c5.44,1.295 9.228,0.946 14,-2c-3.096,4.154 -4.505,6.862 -3,12l-4,4l9,-1l-2,4l0,4l6,0l0,-1l-4,0l0,-2l8,-2l4,2l0,-4l4,0l0,4l7,0l1,0l6,-4l1,0l1,0l2,2l-2,-6l8,8l8,-6l8,2l0,2l-3,1l0,1l11,0l0,-1l-4,0l0,-3l10,-2l-2,4l8,0l1,0l15,0c2.673,-3.499 5.375,-5.13 9,-2l-5,0l0,2l12,1l0,-357l-2,0z" fill="#d2b986" id="svg_155"/>
  <path d="m677.667,345.333l0.666,0.334l-0.666,-0.334m46.333,-0.333l1,1l-1,-1m41,0l1,1l-1,-1m-86,1l1,1l-1,-1m46,0l1,1l-1,-1m41,0l1,1l-1,-1m-86,1l1,1l-1,-1m46,0l1,1l-1,-1m41,0l1,1l-1,-1z" fill="#c67077" id="svg_156"/>
  <path d="m681,348l1,1l-1,-1z" fill="#65b9a4" id="svg_157"/>
  <path d="m682,348l1,1l-1,-1m45,0l1,1l-1,-1m41,0l1,1l-1,-1m-85,1l1,1l-1,-1m45,0l1,1l-1,-1m41,0l1,1l-1,-1m-84.333,1.333l0.666,0.334l-0.666,-0.334m44.333,-0.333l1,1l-1,-1m-43,1l1,1l-1,-1m44,0l3,4l-3,-4m40,0l1,1l-1,-1m-83,1l1,1l-1,-1m84,0l1,1l-1,-1m-83,1l1,1l-1,-1m84,0l1,1l-1,-1m-82.333,1.333l0.666,0.334l-0.666,-0.334m83.333,-0.333l1,1l-1,-1m-82,1l1,1l-1,-1m42,0l1,1l-1,-1m-41,1l1,1l-1,-1m42,0l1,1l-1,-1m40,0l1,1l-1,-1m-81,1l1,1l-1,-1m42,0l1,1l-1,-1m40,0l1,1l-1,-1m-81,1l1,1l-1,-1m42,0l1,1l-1,-1m40,0l1,1l-1,-1m-81,1l1,1l-1,-1m42,0l1,1l-1,-1m-41,1l1,1l-1,-1m42,0l1,1l-1,-1m39,0l1,1l-1,-1m-38,1l1,1l-1,-1m39,0l1,1l-1,-1m-79,1l1,1l-1,-1m41,0l1,1l-1,-1m39,0l1,1l-1,-1m-79,1l1,1l-1,-1m41,0l1,1l-1,-1m-40,1l1,1l-1,-1m41,0l1,1l-1,-1m38,0l1,1l-1,-1m-78,1l1,1l-1,-1m41,0l1,1l-1,-1m38,0l1,1l-1,-1m-78,1l1,1l-1,-1m41.333,0.667l0.334,0.666l-0.334,-0.666m38,0l0.334,0.666l-0.334,-0.666m-78.333,0.333l1,1l-1,-1m1,1l1,1l-1,-1m40,0l1,1l-1,-1m38,0l1,1l-1,-1m-77,1l1,1l-1,-1m40,0l1,1l-1,-1m38,0l1,1l-1,-1m-77,1l1,1l-1,-1m40,0l1,1l-1,-1m-39,1l1,1l-1,-1m77,0l1,1l-1,-1m-76,1l1,1l-1,-1m39,0l1,1l-1,-1m38,0l1,1l-1,-1m-76,1l1,1l-1,-1m39,0l1,1l-1,-1m38.333,0.667l0.334,0.666l-0.334,-0.666m-76.333,0.333l1,1l-1,-1m39,0l1,1l-1,-1m-38,1l1,1l-1,-1m39,0l1,1l-1,-1m37,0l1,1l-1,-1m-75,1l1,1l-1,-1m76.333,0.667l0.334,0.666l-0.334,-0.666m-75.333,0.333l1,1l-1,-1m38,0l1,1l-1,-1m-37,1l1,1l-1,-1m38,0l1,1l-1,-1m37,0l1,1l-1,-1m-74,1l1,1l-1,-1m38,0l1,1l-1,-1m37.333,0.667l0.334,0.666l-0.334,-0.666m-74.333,1.333l1,1l-1,-1m38,0l1,1l-1,-1m37,0l1,1l-1,-1m-74,1l1,1l-1,-1m38,0l1,1l-1,-1m-37,1l1,1l-1,-1m38,0l1,1l-1,-1m36,0l1,1l-1,-1m-73,1l1,1l-1,-1m74.333,0.667l0.334,0.666l-0.334,-0.666m-73.333,0.333l1,1l-1,-1m1,1l1,1l-1,-1m37,0l1,1l-1,-1m36.333,0.667l0.334,0.666l-0.334,-0.666m-72,1l0.334,0.666l-0.334,-0.666m36.667,-0.667l1,1l-1,-1m36,1l1,1l-1,-1m-72,1l1,1l-1,-1m37,0l1,1l-1,-1m-36,1l1,1l-1,-1m37.333,0.667l0.334,0.666l-0.334,-0.666m34.667,-0.667l1,1l-1,-1m-71,1l1,1l-1,-1m72.333,0.667l0.334,0.666l-0.334,-0.666m-71.333,0.333l1,1l-1,-1m36,0l1,1l-1,-1m-34.667,1.667l0.334,0.666l-0.334,-0.666m36,0l0.334,0.666l-0.334,-0.666m34.667,-0.667l1,1l-1,-1m-70,2l1,1l-1,-1m36,0l1,1l-1,-1m35,0l1,1l-1,-1m-70,1l1,1l-1,-1m36.333,0.667l0.334,0.666l-0.334,-0.666m-35,1l0.334,0.666l-0.334,-0.666m69.667,-0.667l1,1l-1,-1m-34,1l1,1l-1,-1m35.333,0.667l0.334,0.666l-0.334,-0.666m-70.333,0.333l1,1l-1,-1m1,1l1,1l-1,-1m35,0l1,1l-1,-1m35.333,0.667l0.334,0.666l-0.334,-0.666m-69,1l0.334,0.666l-0.334,-0.666m35,0l0.334,0.666l-0.334,-0.666m-230.333,0.333l1,1l-1,-1m265.333,0.667l0.334,0.666l-0.334,-0.666z" fill="#c67077" id="svg_158"/>
  <path d="m539.333,403.667l0.334,0.666l-0.334,-0.666z" fill="#65b9a4" id="svg_159"/>
  <path d="m735,403l1,1l-1,-1m35,0l1,1l-1,-1m35,1l1,1l-1,-1m-266,1l1,1l-1,-1m197,0l1,1l-1,-1m35,0l1,1l-1,-1z" fill="#c67077" id="svg_160"/>
  <path d="m539,406l0,24l1,0l-1,-24z" fill="#65b9a4" id="svg_161"/>
  <path d="m737,406l1,1l-1,-1m35.333,0.667l0.334,0.666l-0.334,-0.666m34,0l0.334,0.666l-0.334,-0.666m-68.333,1.333l1,1l-1,-1m35,0l1,1l-1,-1m34.333,0.667l0.334,0.666l-0.334,-0.666m-68.333,0.333l1,1l-1,-1m35,1l1,1l-1,-1m34,0l1,1l-1,-1m-68,1l1,1l-1,-1m1,1l1,1l-1,-1m34,0l1,1l-1,-1m34.333,0.667l0.334,0.666l-0.334,-0.666m-33,1l0.334,0.666l-0.334,-0.666m-34.333,0.333l1,1l-1,-1m68.333,0.667l0.334,0.666l-0.334,-0.666m-67,1l0.334,0.666l-0.334,-0.666m34,0l0.334,0.666l-0.334,-0.666m-33.333,1.333l1,1l-1,-1m34.333,0.667l0.334,0.666l-0.334,-0.666m32.667,-0.667l1,1l-1,-1m-66,2l1,1l-1,-1m34.333,0.667l0.334,0.666l-0.334,-0.666m32.667,-0.667l1,1l-1,-1m-65.667,1.667l0.334,0.666l-0.334,-0.666m34,1l0.334,0.666l-0.334,-0.666m33,0l0.334,0.666l-0.334,-0.666m-66.333,0.333l1,1l-1,-1m67.333,1.667l0.334,0.666l-0.334,-0.666m-66.333,0.333l1,1l-1,-1m33,0l1,1l-1,-1m-31.667,1.667l0.334,0.666l-0.334,-0.666m32.667,-0.667l0,3l1,0l-1,-3z" fill="#c67077" id="svg_162"/>
  <path d="m330,426c-7.79,11.396 -12.652,25.965 -17,39c-14.747,44.206 -15.933,93.072 -3.575,138c4.738,17.225 12.766,32.645 19.575,49l1,0l1,-160l0,-45l-1,-21z" fill="#65b9a4" id="svg_163"/>
  <path d="m815,426l1,1l-1,-1z" fill="#c67077" id="svg_164"/>
  <path d="m470.667,427.333l0.666,0.334l-0.666,-0.334z" fill="#d2b986" id="svg_165"/>
  <path d="m750.333,427.667l0.334,0.666l-0.334,-0.666m32.667,0.333l1,1l-1,-1m33.333,0.667l0.334,0.666l-0.334,-0.666m-277.333,1.333l0,273l1,0l0,-193l0,-55l-1,-25m212,0l1,1l-1,-1m33.333,0.667l0.334,0.666l-0.334,-0.666m33,0l0.334,0.666l-0.334,-0.666m-65.333,1.333l1,1l-1,-1m33.333,0.667l0.334,0.666l-0.334,-0.666m-32,1l0.334,0.666l-0.334,-0.666m65,0l0.334,0.666l-0.334,-0.666m-32,1l0.334,0.666l-0.334,-0.666m-32.333,1.333l1,1l-1,-1m65.333,0.667l0.334,0.666l-0.334,-0.666m-32.333,0.333l1,1l-1,-1m-32,1l1,1l-1,-1m65,0l0,3l1,0l-1,-3m-31.667,1.667l0.334,0.666l-0.334,-0.666m-32,1l0.334,0.666l-0.334,-0.666m33,1l0.334,0.666l-0.334,-0.666m32,0l0.334,0.666l-0.334,-0.666m-64.333,0.333l1,1l-1,-1m1.333,2.667l0.334,0.666l-0.334,-0.666m32,0l0.334,0.666l-0.334,-0.666m32,1l0.334,0.666l-0.334,-0.666m-63,1l0.334,0.666l-0.334,-0.666z" fill="#c67077" id="svg_166"/>
  <path d="m459,447l0,1l4,0l-4,-1z" fill="#d2b986" id="svg_167"/>
  <path d="m791.333,447.667l0.334,0.666l-0.334,-0.666m31.667,-0.667l0,3l1,0l-1,-3m-62.667,1.667l0.334,0.666l-0.334,-0.666m31.667,0.333l0,3l1,0l-1,-3z" fill="#c67077" id="svg_168"/>
  <path d="m460.667,450.333l0.666,0.334l-0.666,-0.334z" fill="#d2b986" id="svg_169"/>
  <path d="m824,450l0,3l1,0l-1,-3z" fill="#c67077" id="svg_170"/>
  <path d="m458,451l1,1l-1,-1z" fill="#d2b986" id="svg_171"/>
  <path d="m761.333,451.667l0.334,0.666l-0.334,-0.666m0.667,1.333l0,3l1,0l-1,-3m31.333,0.667l0.334,0.666l-0.334,-0.666m32,1l0.334,0.666l-0.334,-0.666m-62,2l0.334,0.666l-0.334,-0.666m31,0l0.334,0.666l-0.334,-0.666m31.667,0.333l0,3l1,0l-1,-3m-31,1l0,4l1,0l-1,-4m-31,2l1,1l-1,-1m63,0l0,3l1,0l-1,-3m-317.667,1.667l0.334,0.666l-0.334,-0.666m255.667,0.333l0,3l1,0l-1,-3m31.333,0.667l0.334,0.666l-0.334,-0.666z" fill="#c67077" id="svg_172"/>
  <path d="m509,463l0,8l1,0l-1,-8z" fill="#65b9a4" id="svg_173"/>
  <path d="m828,464l0,3l1,0l-1,-3m-62,1l0,3l1,0l-1,-3m31,0l0,3l1,0l-1,-3m32,2l0,5l1,0l-1,-5m-61.667,1.667l0.334,0.666l-0.334,-0.666m30.667,-0.667l0,3l1,0l-1,-3m-289,3l0,4l1,0l-1,-4m259.333,1.667l0.334,0.666l-0.334,-0.666m30.667,-0.667l0,3l1,0l-1,-3m31,0l0,4l1,0l-1,-4m-61,2l0,4l1,0l-1,-4z" fill="#c67077" id="svg_174"/>
  <path d="m509,475l1,1l-1,-1z" fill="#65b9a4" id="svg_175"/>
  <path d="m509,476l0,4l1,0l-1,-4m291,0l0,3l1,0l-1,-3m-30,2l0,3l1,0l-1,-3m61,0l0,3l1,0l-1,-3z" fill="#c67077" id="svg_176"/>
  <path d="m509,480l0,17l1,0l-1,-17z" fill="#65b9a4" id="svg_177"/>
  <path d="m801,480l0,5l1,0l-1,-5m-30,2l0,3l1,0l-1,-3m61,1l0,3l1,0l-1,-3m-60,2l0,5l1,0l-1,-5m30,0l0,3l1,0l-1,-3m31,2l0,5l1,0l-1,-5m-60,4l0,4l1,0l-1,-4m30,0l0,4l1,0l-1,-4m31,2l0,4l1,0l-1,-4z" fill="#c67077" id="svg_178"/>
  <path d="m440,495l0,1l3,0l-3,-1z" fill="#d2b986" id="svg_179"/>
  <path d="m804,495l0,6l1,0l-1,-6m-295,2l1,1l-1,-1m265,0l0,4l1,0l-1,-4z" fill="#c67077" id="svg_180"/>
  <path d="m509,498l1,1l-1,-1z" fill="#65b9a4" id="svg_181"/>
  <path d="m509,499l-1,203l-12,-1l0,-2l5,0c-2.989,-4.179 -7.005,-1.911 -9,2l-15,0l-1,0l-8,0l2,-4l-10,2l0,3l4,0l0,1l-11,0l0,-1l3,-1l0,-2l-8,-2l-8,6c-1.248,-4.19 -3.806,-6.781 -8,-8l2,6l-2,-2l-1,0l-1,0l-6,4l-1,0l-7,0l0,-4l-4,0l0,4l-4,-2l-8,2l0,2l4,0l0,1l-6,0l0,-4l2,-4l-9,1l4,-4l3,-12l-14,2l-4,2l1,3l-4,5l-1,0l0,-13l-1,0l0,5l-3,0l-2,6l-8,-4l-1,0l0,48c0,6.203 1.659,15.324 -1.179,21c-3.585,7.171 -12.046,12.824 -17.86,18.184c-9.994,9.213 -19.35,19.205 -28.961,28.816c-6.684,6.684 -15.838,14.746 -9.91,24.995c6.452,11.158 25.995,8.005 36.91,8.005l106,0l213,0l64,0c9.126,0 21.254,2.089 30,-0.653c9.569,-3 18.1,-15.447 25,-22.347c18.483,-18.483 40.661,-36.3 56.606,-57c5.707,-7.409 3.723,-18.089 -4.621,-22.697c-12.986,-7.172 -38.441,-2.303 -52.985,-2.303l-131,0c-33.375,0 -66.799,-0.493 -100,0.961c-11.334,0.496 -24.036,-3.202 -35,0.039c-4.243,-17.821 -1,-39.692 -1,-58l0,-117l0,-41c0,-5.887 1.292,-13.537 -1,-19m326,1l0,6l1,0l-1,-6m-30,1l0,5l1,0l-1,-5m-30,1l0,6l1,0l-1,-6m61,4l1,25l1,0l-2,-25m-60,2l0,6l1,0l-1,-6m30,2l0,7l1,0l-1,-7m-29,8l0,13l1,0l-1,-13m30,2l0,41l1,0c0,-11.696 3.511,-30.25 -1,-41z" fill="#c67077" id="svg_182"/>
  <path d="m423,541l-1,2l2,0l-1,-2z" fill="#d2b986" id="svg_183"/>
  <path d="m360,547l0,3l1,0l-1,-3m477,0l-1,24l1,0l0,-24m-59,2l1,1l-1,-1z" fill="#c67077" id="svg_184"/>
  <path d="m424,550l1,1l-1,-1z" fill="#65b9a4" id="svg_185"/>
  <path d="m777,551l0,10l1,0l-1,-10m-417,2l1,1l-1,-1m0,3l0,4l1,0l-1,-4z" fill="#c67077" id="svg_186"/>
  <path d="m416,559l0,4l1,0l2,-4l-3,0z" fill="#d2b986" id="svg_187"/>
  <path d="m806,562l0,7l1,0l-1,-7m-445.667,1.667l0.334,0.666l-0.334,-0.666m415.667,1.333l0,6l1,0l-1,-6m-1,6l0,7l1,0l-1,-7m30,1l0,6l1,0l-1,-6m30,0l0,7l1,0l-1,-7z" fill="#c67077" id="svg_188"/>
  <path d="m416.667,574.333l0.666,0.334l-0.666,-0.334z" fill="#65b9a4" id="svg_189"/>
  <path d="m774,578l0,5l1,0l-1,-5m30,0l0,7l1,0l-1,-7m30,3l0,5l1,0l-1,-5m184,2l1,1l-1,-1z" fill="#c67077" id="svg_190"/>
  <path d="m405,584l1,1l-1,-1z" fill="#65b9a4" id="svg_191"/>
  <path d="m773,584l0,4l1,0l-1,-4m30,1l0,5l1,0l-1,-5m30,2l0,6l1,0l-1,-6m-473,1l0,19l1,0l-1,-19m412,0l0,5l1,0l-1,-5z" fill="#c67077" id="svg_192"/>
  <path d="m399,589l3,2l-3,-2z" fill="#d2b986" id="svg_193"/>
  <path d="m1018,590l-1,2l2,0l-1,-2m-216,2l0,3l1,0l-1,-3m-31,1l0,4l1,0l-1,-4m61,0l0,4l1,0l-1,-4m-31,3l0,4l1,0l-1,-4m-31,2l0,3l1,0l-1,-3m61,0l0,4l1,0l-1,-4m-31,2l0,4l1,0l-1,-4m-31,1l0,4l1,0l-1,-4m61,1l0,5l1,0l-1,-5z" fill="#c67077" id="svg_194"/>
  <path d="m396,603l1,1l-1,-1z" fill="#d2b986" id="svg_195"/>
  <path d="m768,605l0,3l1,0l-1,-3m31,0l0,3l1,0l-1,-3m30,2l0,3l1,0l-1,-3m-31,1l0,4l1,0l-1,-4m-30.667,1.667l0.334,0.666l-0.334,-0.666m-1.333,1.333l-1,7l1,0l0,-7m62,0l0,3l1,0l-1,-3m-31,1l0,3l1,0l-1,-3z" fill="#c67077" id="svg_196"/>
  <path d="m398.667,615.333l0.666,0.334l-0.666,-0.334z" fill="#65b9a4" id="svg_197"/>
  <path d="m796,615l0,3l1,0l-1,-3m31,0l0,3l1,0l-1,-3m-62.667,3.667l0.334,0.666l-0.334,-0.666m30.667,-0.667l-1,7l1,0l0,-7m31,0l0,4l1,0l-1,-4m-63,2l0,3l1,0l-1,-3m62,2l0,3l1,0l-1,-3m-63,1l0,3l1,0l-1,-3m31.333,2.667l0.334,0.666l-0.334,-0.666m-32,1l0.334,0.666l-0.334,-0.666m62.667,-0.667l-1,6l1,0l0,-6m-63.667,2.667l0.334,0.666l-0.334,-0.666m32,0l0.334,0.666l-0.334,-0.666m-462.333,0.333l0,6l1,0l-1,-6m429,1l0,3l1,0l-1,-3m32,0l0,3l1,0l-1,-3m31,2l0,3l1,0l-1,-3m189,0l1,1l-1,-1m-252.667,1.667l0.334,0.666l-0.334,-0.666m32,0l0.334,0.666l-0.334,-0.666m219.667,-0.667l1,1l-1,-1m-252.667,2.667l0.334,0.666l-0.334,-0.666m63.667,-0.667l0,3l1,0l-1,-3m-31.667,1.667l0.334,0.666l-0.334,-0.666m-459.333,0.333l0,15l1,0l-1,-15m426,0l0,3l1,0l-1,-3m32,1l0,3l1,0l-1,-3m32,0l0,3l1,0l-1,-3m190,0l1,1l-1,-1m-650,1l1,1l-1,-1m649,0l-4,18l1,0l3,-18m-254,1l1,1l-1,-1m32.333,1.667l0.334,0.666l-0.334,-0.666m32,0l0.334,0.666l-0.334,-0.666m-495.333,0.333l1,1l-1,-1m430,0l-1,4l1,0l0,-4m32,1l-1,5l1,0l0,-5m32.333,1.667l0.334,0.666l-0.334,-0.666m-66.333,1.333l1,1l-1,-1m65,0l0,3l1,0l-1,-3m-490,2l1,1l-1,-1m424,0l1,1l-1,-1m33.333,0.667l0.334,0.666l-0.334,-0.666m-34.333,0.333l-1,4l1,0l0,-4m66.333,0.667l0.334,0.666l-0.334,-0.666m-33,1l0.334,0.666l-0.334,-0.666m32,1l0.334,0.666l-0.334,-0.666m-33.333,0.333l-1,5l1,0l0,-5m-33.667,1.667l0.334,0.666l-0.334,-0.666m65.667,-0.667l0,3l1,0l-1,-3m-66.667,2.667l0.334,0.666l-0.334,-0.666m66,1l0.334,0.666l-0.334,-0.666m-67,1l0.334,0.666l-0.334,-0.666m33.667,-0.667l1,1l-1,-1m32.333,1.667l0.334,0.666l-0.334,-0.666m192.337,-0.334l0.66,0.334l-0.66,-0.334m-259.67,0.667l1,1l-1,-1m34.333,0.667l0.334,0.666l-0.334,-0.666m-480.333,0.333l1,1l-1,-1m445.333,0.667l0.334,0.666l-0.334,-0.666m66.667,-0.667l-1,5l1,0l0,-5m-32.667,1.667l0.334,0.666l-0.334,-0.666z" fill="#c67077" id="svg_198"/>
  <path d="m374.667,662.333l0.666,0.334l-0.666,-0.334z" fill="#d2b986" id="svg_199"/>
  <path d="m743.333,662.667l0.334,0.666l-0.334,-0.666z" fill="#c67077" id="svg_200"/>
  <path d="m370.667,663.333l0.666,0.334l-0.666,-0.334z" fill="#d2b986" id="svg_201"/>
  <path d="m777,663l1,1l-1,-1m-35,1l1,1l-1,-1m-0.667,1.667l0.334,0.666l-0.334,-0.666m34.667,-0.667l1,1l-1,-1m33.333,0.667l0.334,0.666l-0.334,-0.666m-34,1l0.334,0.666l-0.334,-0.666m-35.333,0.333l1,1l-1,-1m68.333,0.667l0.334,0.666l-0.334,-0.666z" fill="#c67077" id="svg_202"/>
  <path d="m377,671l4,0l-1,-3l-3,3z" fill="#65b9a4" id="svg_203"/>
  <path d="m365,687l3,3l-3,-3m20,3l4,1l1,-4l-5,3z" fill="#d2b986" id="svg_205"/>
  <path d="m726,687l1,1l-1,-1m37,0l1,1l-1,-1m-38,1l1,1l-1,-1m37,0l-1,3l1,-3m35,0l1,1l-1,-1m-481,1l1,1l-1,-1m408,0l-3,5l3,-5m72,1l1,1l-1,-1m-36,1l1,1l-1,-1m35.333,0.667l0.334,0.666l-0.334,-0.666m-477.333,0.333l1,1l-1,-1m441.333,0.667l0.334,0.666l-0.334,-0.666m34.667,0.333l1,1l-1,-1m-74,1l1,1l-1,-1m38,0l1,1l-1,-1m-438,1l1,1l-1,-1z" fill="#c67077" id="svg_206"/>
  <path d="m362,695l1,1l-1,-1z" fill="#65b9a4" id="svg_207"/>
  <path d="m366.667,695.333l0.666,0.334l-0.666,-0.334z" fill="#d2b986" id="svg_208"/>
  <path d="m424,697l3,-2l-3,2m13,-2l0,1l3,1l-3,-2m282,0l1,1l-1,-1m38,0l-1,3l1,-3m36,0l1,1l-1,-1m-507,1l1,1l-1,-1m35,0l1,1l-1,-1m397,0l-4,6l4,-6m74.333,0.667l0.334,0.666l-0.334,-0.666m-392.333,0.333l1,1l-1,-1m-78,1l1,1l-1,-1m433,0l1,1l-1,-1m36,0l1,1l-1,-1m-468,1l1,1l-1,-1m431,0l-1,3l1,-3m36.333,0.667l0.334,0.666l-0.334,-0.666z" fill="#c67077" id="svg_209"/>
  <path d="m392,700l0,2l4,0l0,-2l-4,0z" fill="#d2b986" id="svg_210"/>
  <path d="m289,701l1,1l-1,-1m500,0l1,1l-1,-1m-464,1l1,1l-1,-1m388,0l1,1l-1,-1m39,0c2.103,2.407 4.894,1.994 8,2c6.577,0.013 24.582,3.056 29,-2c-10.622,2.529 -26.378,2.529 -37,0m-426,1l1,1l-1,-1z" fill="#c67077" id="svg_211"/>
  <path d="m393.667,703.333l0.666,0.334l-0.666,-0.334z" fill="#d2b986" id="svg_212"/>
  <path d="m540,703l0,1l173,0l-17,-1l-35,0l-121,0m-213,1l1,1l-1,-1m1,2l1,1l-1,-1m1,1l0,18l-6,2l0,-4l-1,0l-2,2l0,-6c-3.194,0.013 -5.271,-0.403 -6,3l1,0l2,-2l2,5c-14.604,3.114 5.861,23.756 12,26l0,-31l-2,-13m-35,1l1,1l-1,-1z" fill="#c67077" id="svg_213"/>
  <path d="m506,709l-2,10l2,0l2,-10l-2,0z" fill="#d2b986" id="svg_214"/>
  <path d="m295,710l1,1l-1,-1m1,1l1,1l-1,-1m1,1l1,1l-1,-1m1,2l1,1l-1,-1m1,1l1,1l-1,-1m1,1l1,1l-1,-1m1,2l1,1l-1,-1m1,1l1,1l-1,-1m1,1l1,1l-1,-1m1,1l1,1l-1,-1m1,2l1,1l-1,-1m1,1l1,1l-1,-1m1,1l1,1l-1,-1m5,0l1,1l-1,-1m-3.667,1.667l0.334,0.666l-0.334,-0.666m0.667,1.333l1,1l-1,-1m1,1l2,2l0,-2l-2,0m2,2l1,1l-1,-1z" fill="#c67077" id="svg_215"/>
  <path d="m632.667,735.333l0.666,0.334l-0.666,-0.334m23.333,-0.333l1,1l-1,-1m8,0c4.381,7.499 15.119,-1.409 16,10l22,-2l0,1l-6,3l18.166,8.678l13.834,2.322l-3,1l6,11l1,-3l2,0c1.504,4.35 4.09,9.511 9,6l7,2l0,4l2,-2l1,0l1,0c3.02,6.117 7.836,5.999 14,6l0,6l16,2c0.981,3.143 3.95,8.305 8.039,6.824c4.56,-1.651 8.617,-7.48 11.961,-10.824c9.028,-9.028 34.242,-25.671 32.657,-40c-1.931,-17.445 -28.429,-12 -40.657,-12l-132,0m-1,7l1,1l-1,-1m9,0l1,1l-1,-1z" fill="#d2b986" id="svg_216"/>
  <path d="m684.667,742.333l0.666,0.334l-0.666,-0.334m3.333,-0.333l0,3l3,-1l0,-1l-3,-1z" fill="#c67077" id="svg_217"/>
  <path d="m688,753l8,0l0,-3l4,0c-4.36,-2.518 -9.445,-1.426 -12,3z" fill="#d2b986" id="svg_218"/>
  <path d="m744,767l1,1l-1,-1m-5,3l0,2l2,0l0,-2l-2,0z" fill="#c67077" id="svg_219"/>
  <path d="m733,773l3,4l-3,-4m-6.333,2.333l0.666,0.334l-0.666,-0.334z" fill="#d2b986" id="svg_220"/>
  <path d="m166.333,841.667l0.334,0.666l-0.334,-0.666z" fill="#c67077" id="svg_221"/>
  <path d="m163,847l1,1l-1,-1z" fill="#65b9a4" id="svg_222"/>
  <path d="m132,878l1,1l-1,-1m-4,2l0,5l1,0l1,-5l-2,0z" fill="#c67077" id="svg_223"/>
  <path d="m952,888l0,1l3,0l-3,-1z" fill="#d2b986" id="svg_224"/>
  <path d="m119,893l-2,7l1,0l1,-7z" fill="#65b9a4" id="svg_225"/>
  <path d="m103.333,902.667l0.334,0.666l-0.334,-0.666m884.667,1.333l1,2l1,0l1,-2l-3,0m-886,2l1,1l-1,-1m-15,13l1,1l-1,-1m921,0l0,1l3,0l-3,-1m24,19l1,1l-1,-1m-974,6l0,1l3,0l-3,-1m-2,4l1,1l-1,-1z" fill="#c67077" id="svg_226"/>
  <path d="m1040,950l-4,2l0,1l8,1l-4,-4z" fill="#d2b986" id="svg_227"/>
  <path d="m1058,958l-1,2l2,0l-1,-2m6,9l1,1l-1,-1z" fill="#c67077" id="svg_228"/>
  <path d="m1056.67,968.333l0.66,0.334l-0.66,-0.334m3.33,3.667l1,1l-1,-1m4,0l0,4l1,0l-1,-4m4.67,6.333l0.66,0.334l-0.66,-0.334z" fill="#d2b986" id="svg_229"/>
  <path d="m9,1006l3,2l0,-1l-3,-1z" fill="#65b9a4" id="svg_230"/>
 </g>

</svg>